<?xml version="1.0" standalone="no"?>
<!DOCTYPE svg PUBLIC "-//W3C//DTD SVG 20010904//EN"
 "http://www.w3.org/TR/2001/REC-SVG-20010904/DTD/svg10.dtd">
<svg version="1.0" xmlns="http://www.w3.org/2000/svg"
 width="691.000000pt" height="691.000000pt" viewBox="0 0 691.000000 691.000000"
 preserveAspectRatio="xMidYMid meet">
<metadata>
Created by potrace 1.11, written by Peter Selinger 2001-2013
</metadata>
<g transform="translate(0.000000,691.000000) scale(0.100000,-0.100000)"
fill="#000000" stroke="none">
<path d="M1423 5682 c-56 -20 -115 -61 -138 -95 -24 -37 -135 -332 -202 -537
-23 -71 -64 -201 -78 -250 -7 -25 -33 -112 -58 -195 -25 -82 -70 -242 -101
-355 -31 -113 -60 -218 -65 -235 -11 -37 -111 -407 -116 -432 -2 -10 -17 -72
-34 -138 -28 -112 -98 -443 -106 -503 -2 -15 -8 -56 -14 -92 -5 -36 -13 -87
-17 -115 -3 -27 -8 -58 -9 -67 -2 -9 -7 -48 -10 -85 -4 -37 -9 -77 -12 -88
-13 -52 -11 -476 2 -575 41 -311 164 -562 345 -705 14 -11 40 -38 58 -60 88
-104 211 -181 339 -211 83 -20 237 -21 318 -4 33 8 62 14 65 15 73 15 240 104
349 186 167 126 372 358 529 596 66 101 61 100 77 13 35 -189 129 -380 237
-478 70 -64 87 -81 133 -132 141 -158 313 -223 565 -215 134 4 159 8 260 41
98 33 184 81 284 161 329 263 560 702 831 1578 26 83 68 218 94 300 69 217 77
242 132 430 294 1001 430 1341 620 1549 37 40 54 53 60 45 4 -7 6 -17 3 -21
-9 -15 16 -85 46 -127 17 -23 52 -55 79 -71 29 -18 60 -49 79 -79 78 -126 278
-178 409 -107 141 77 201 205 191 403 -8 156 -78 306 -175 380 -20 15 -48 41
-62 56 -133 146 -161 164 -291 191 -58 13 -302 14 -375 3 -154 -24 -255 -77
-375 -197 -281 -279 -461 -690 -785 -1790 -330 -1117 -439 -1421 -621 -1730
-135 -230 -266 -365 -403 -419 -66 -26 -92 -31 -171 -31 -87 -1 -121 11 -142
46 -25 44 -50 186 -51 293 -1 93 10 298 17 310 2 3 6 29 10 58 47 398 318
1277 578 1877 88 202 97 231 93 292 -5 91 -81 207 -162 248 -17 9 -35 25 -38
36 -11 35 -100 117 -151 141 -123 56 -268 27 -362 -71 -44 -46 -52 -67 -198
-510 -99 -303 -267 -772 -309 -865 -8 -16 -27 -64 -44 -105 -116 -297 -317
-714 -464 -961 -318 -537 -608 -798 -873 -786 -69 4 -82 9 -95 45 -20 53 -48
169 -54 227 -16 154 0 445 35 630 5 28 12 64 15 81 24 151 121 513 225 844 39
124 73 232 75 240 9 34 130 383 235 675 10 28 29 84 44 125 14 41 30 84 35 95
5 11 35 92 66 180 67 187 157 421 186 484 56 121 3 284 -116 360 -26 16 -60
50 -76 75 -35 52 -91 99 -144 122 -60 25 -161 28 -222 6z"/>
</g>
</svg>
